<?xml version="1.0" encoding="UTF-8"?>
<svg id="Layer_1" data-name="Layer 1" xmlns="http://www.w3.org/2000/svg" viewBox="0 0 320 320">
  <defs>
    <style>
      .cls-1 {
        fill: none;
        stroke: #034246;
        stroke-miterlimit: 10;
        stroke-width: 11px;
      }

      .cls-2 {
        fill: #034246;
      }
    </style>
  </defs>
  <polyline class="cls-1" points="36.33 159.12 56.19 159.12 68.83 132.7 98.62 212.01 132.02 107.99 160 107.99"/>
  <g>
    <path class="cls-2" d="M158.35,177.24h-19.5l-4.14,16.8h22.9l-2.91,6.71h-30.59l12.77-51h29.27l-1.79,6.71h-20.37l-3.41,14.06h19.5l-1.73,6.71Z"/>
    <path class="cls-2" d="M179.19,149.75h9.03l-11.04,44.28h20.78l-2.54,6.71h-28.99l12.77-51Z"/>
    <path class="cls-2" d="M218.75,149.75h9.03l-11.04,44.28h20.78l-2.54,6.71h-28.99l12.77-51Z"/>
    <path class="cls-2" d="M283.48,177.46c-4,15.78-11.4,24.1-22.86,24.1-14.95,0-17.23-12.19-13.06-28.48,3.6-14.1,10.9-24.16,22.72-24.16,14.19,0,17.7,10.7,13.2,28.54ZM256.52,174.06c-2.89,11.62-3.19,20.9,4.67,20.9,6.28,0,9.92-5.62,13.26-18.31,3.04-11.5,4.08-21.08-4.52-21.08-6.75,0-10.69,7.57-13.41,18.49Z"/>
  </g>
</svg>